<svg xmlns="http://www.w3.org/2000/svg" width="352" height="143" viewBox="0 0 352 143" version="1.1">
	<path d="M -0 71.503 L -0 143.006 176.250 142.753 L 352.500 142.500 352.757 71.250 L 353.013 0 176.507 0 L 0 0 -0 71.503 M 0.474 72 C 0.474 111.325, 0.598 127.412, 0.750 107.750 C 0.901 88.088, 0.901 55.913, 0.750 36.250 C 0.598 16.587, 0.474 32.675, 0.474 72 M 61.907 45.327 C 56.712 48.069, 52.194 54.032, 51.344 59.266 C 50.806 62.581, 50.973 63, 52.831 63 C 54.401 63, 55.176 62.065, 55.937 59.250 C 57.395 53.857, 59.694 51.043, 64.383 48.914 C 77.816 42.813, 89.932 53.629, 87.540 69.585 C 86.157 78.805, 76.827 85.104, 67.628 83.029 C 62.705 81.918, 57.260 76.680, 55.942 71.785 C 55.202 69.038, 54.385 68, 52.961 68 C 50.487 68, 50.467 70.255, 52.896 75.500 C 59.334 89.405, 76.681 92.100, 86.653 80.743 C 91 75.791, 92.344 71.054, 91.751 62.770 C 91.355 57.222, 90.675 55, 88.377 51.738 C 84.544 46.297, 78.177 43, 71.500 43 C 68.001 43, 64.881 43.757, 61.907 45.327 M 235.500 44.659 C 228.223 48.488, 224.497 53.772, 223.437 61.766 C 222.378 69.747, 224.464 76.517, 229.551 81.603 C 236.308 88.361, 245.111 89.696, 253.757 85.275 C 260.842 81.652, 267.444 68, 262.111 68 C 260.747 68, 260.042 68.965, 259.571 71.471 C 258.091 79.360, 248.241 85.219, 240.131 83.035 C 231.670 80.757, 228 75.452, 228 65.500 C 228 58.061, 229.443 54.488, 233.994 50.659 C 242.542 43.466, 256.358 47.832, 259.249 58.640 C 260.076 61.731, 260.936 63, 262.207 63 C 266.002 63, 263.085 53.196, 257.834 48.298 C 252.363 43.195, 241.611 41.443, 235.500 44.659 M 90 47 C 90 48.852, 90.667 49, 99 49 L 108 49 108 67.500 C 108 85.333, 108.072 86, 110 86 C 111.935 86, 112 85.333, 112 65.500 L 112 45 101 45 C 90.667 45, 90 45.121, 90 47 M 117 47 C 117 48.810, 117.667 49, 124 49 C 130.333 49, 131 48.810, 131 47 C 131 45.190, 130.333 45, 124 45 C 117.667 45, 117 45.190, 117 47 M 138.491 46.865 C 125.368 52.827, 122.285 69.338, 132.406 79.459 C 144.644 91.697, 167.384 86.049, 171.004 69.871 C 172.538 63.016, 171.164 57.396, 166.716 52.330 C 161.355 46.223, 151 42.682, 151 46.955 C 151 48.404, 151.923 49.082, 154.571 49.579 C 161.840 50.943, 167.003 57.641, 166.996 65.700 C 166.992 71.432, 164.417 76.165, 159.759 79.005 C 155.146 81.818, 142.854 81.818, 138.241 79.005 C 131.582 74.946, 128.869 65.021, 132.499 58.002 C 134.412 54.303, 139.575 50.415, 143.750 49.530 C 146.049 49.043, 147 48.279, 147 46.921 C 147 44.445, 143.863 44.425, 138.491 46.865 M 177 56.500 L 177 68 193.345 68 C 208.328 68, 209.838 68.164, 211.470 69.967 C 213.876 72.626, 213.713 76.732, 211.096 79.347 C 209.040 81.402, 208.218 81.485, 192.971 81.163 L 177 80.827 177 83.479 L 177 86.132 193.983 85.816 L 210.967 85.500 214.233 82.231 C 216.935 79.527, 217.500 78.198, 217.500 74.546 C 217.500 71.061, 216.903 69.509, 214.668 67.175 C 211.920 64.307, 211.882 64.128, 213.418 61.159 C 215.412 57.302, 215.404 55.653, 213.365 51.357 C 210.721 45.786, 208.025 45, 191.550 45 L 177 45 177 56.500 M 262 47 C 262 48.851, 262.667 49, 270.977 49 L 279.955 49 280.227 67.250 C 280.497 85.321, 280.522 85.503, 282.750 85.820 L 285 86.139 285 65.570 L 285 45 273.500 45 C 262.667 45, 262 45.116, 262 47 M 289 47 C 289 48.810, 289.667 49, 296 49 C 302.333 49, 303 48.810, 303 47 C 303 45.190, 302.333 45, 296 45 C 289.667 45, 289 45.190, 289 47 M 181 56 L 181 63 193.845 63 C 204.816 63, 206.918 62.745, 208.255 61.250 C 210.985 58.196, 210.878 53.878, 208 51 C 206.213 49.213, 204.667 49, 193.500 49 L 181 49 181 56 M 29 99 C 29 99.662, 78.667 100, 176 100 C 273.333 100, 323 99.662, 323 99 C 323 98.338, 273.333 98, 176 98 C 78.667 98, 29 98.338, 29 99" stroke="none" fill="currentColor" fill-rule="evenodd"/>
</svg>