<svg xmlns="http://www.w3.org/2000/svg" width="600" height="600" viewBox="0 0 600 600" version="1.1">
	<path d="M 300 31.582 C 300 34.091, 307.176 42.175, 310.715 43.654 C 314.504 45.237, 319.623 45.419, 320.499 44.002 C 321.507 42.370, 312.822 33.146, 308.739 31.512 C 303.743 29.513, 300 29.543, 300 31.582 M 281 32.355 C 281 33.100, 283.369 35.951, 286.265 38.690 C 290.302 42.507, 292.545 43.831, 295.877 44.364 C 300.508 45.105, 303.558 43.753, 302.237 41.544 C 301.832 40.867, 299.122 38.217, 296.217 35.656 C 291.443 31.449, 290.455 31, 285.967 31 C 282.455 31, 281 31.397, 281 32.355 M 318.472 32.045 C 317.463 33.678, 326.106 44.146, 329.705 45.650 C 334.219 47.536, 338 47.403, 338 45.359 C 338 42.358, 330.831 34.150, 326.803 32.538 C 322.325 30.746, 319.382 30.572, 318.472 32.045 M 263.072 33.414 C 261.757 34.997, 263.416 36.968, 270.400 42.122 C 273.419 44.349, 275.383 45, 279.091 45 C 281.726 45, 284.200 44.485, 284.589 43.855 C 285.007 43.180, 283.289 40.937, 280.398 38.382 C 273.798 32.549, 265.713 30.231, 263.072 33.414 M 337.366 34.488 C 336.615 36.446, 342.724 44.888, 346.963 47.750 C 350.869 50.387, 356 50.788, 356 48.457 C 356 45.664, 347.937 35.872, 344.432 34.407 C 340.114 32.603, 338.081 32.626, 337.366 34.488 M 245.250 35.662 C 242.727 36.680, 244.135 38.987, 249.723 42.988 C 254.993 46.762, 255.884 47.063, 260.973 46.793 C 268.392 46.400, 268.203 44.641, 260.159 39.250 C 254.042 35.150, 249.330 34.016, 245.250 35.662 M 356.091 37.390 C 355.419 38.201, 356.194 40.492, 358.566 44.701 C 361.309 49.568, 362.951 51.282, 366.536 53.017 C 370.188 54.785, 371.335 54.967, 372.541 53.966 C 373.842 52.886, 373.695 52.143, 371.383 48.115 C 369.927 45.577, 367.653 42.333, 366.330 40.906 C 363.339 37.681, 357.511 35.679, 356.091 37.390 M 229.005 39.849 C 224.610 41.150, 225.562 43.373, 232.193 47.296 C 238.579 51.074, 240.368 51.476, 245.875 50.375 C 250.374 49.475, 249.744 47.514, 243.657 43.473 C 238.099 39.783, 233.267 38.587, 229.005 39.849 M 373.575 41.879 C 372.613 43.435, 378.526 54.482, 381.626 56.920 C 384.973 59.553, 388.813 60.587, 390.178 59.222 C 391.552 57.848, 385.385 46.270, 382 43.866 C 378.778 41.578, 374.399 40.545, 373.575 41.879 M 209.104 45.914 C 206.701 47.436, 208.621 49.654, 215.174 52.929 C 220.390 55.536, 222.202 55.975, 225.500 55.432 C 229.577 54.761, 232 53.441, 232 51.892 C 232 51.417, 229.313 49.672, 226.029 48.014 C 219.955 44.948, 212.158 43.981, 209.104 45.914 M 391.538 47.938 C 391.220 48.454, 392.150 51.851, 393.606 55.488 C 395.578 60.414, 397.172 62.724, 399.858 64.550 C 407.283 69.595, 408.985 66.647, 404.218 57 C 400.764 50.010, 393.477 44.802, 391.538 47.938 M 194.005 51.894 C 189.885 53.040, 190.369 55.638, 195.158 58.081 C 201.803 61.471, 204.864 62.063, 209.588 60.873 C 216.195 59.210, 215.969 57.374, 208.737 53.952 C 202.590 51.044, 198.907 50.530, 194.005 51.894 M 408.573 54.883 C 407.933 55.918, 411.412 66.453, 413.390 69.472 C 414.139 70.616, 416.400 72.439, 418.414 73.524 C 423.405 76.211, 424.409 74.503, 421.985 67.455 C 419.389 59.910, 418.434 58.431, 414.645 56.089 C 410.974 53.821, 409.420 53.512, 408.573 54.883 M 176.210 60.239 C 172.335 62.105, 174.057 64.337, 181.347 66.899 C 187.760 69.152, 188.455 69.210, 192.832 67.850 C 199.510 65.777, 199.412 63.672, 192.518 61.093 C 186.467 58.829, 179.856 58.482, 176.210 60.239 M 288.560 68.175 C 289.902 72.121, 291 75.724, 291 76.181 C 291 76.637, 288.029 79.146, 284.398 81.755 L 277.795 86.500 286.328 86.788 L 294.861 87.076 297.076 94.538 C 298.294 98.642, 299.597 102, 299.970 102 C 300.343 102, 301.701 98.641, 302.989 94.537 L 305.329 87.073 313.899 86.787 L 322.469 86.500 315.734 81.699 C 312.030 79.059, 309 76.551, 309 76.125 C 309 75.699, 310.098 72.121, 311.440 68.175 C 312.783 64.229, 313.570 61.012, 313.190 61.027 C 312.811 61.041, 309.834 63.066, 306.576 65.527 C 303.317 67.987, 300.370 70, 300.026 70 C 299.682 70, 296.617 67.975, 293.216 65.500 C 289.814 63.025, 286.826 61, 286.575 61 C 286.324 61, 287.217 64.229, 288.560 68.175 M 425.534 62.945 C 425.213 63.465, 425.701 66.881, 426.620 70.537 C 427.885 75.572, 429.141 78.012, 431.798 80.592 C 437.649 86.274, 439.868 84.875, 437.966 76.703 C 436.431 70.105, 433.943 65.973, 430.165 63.750 C 426.735 61.732, 426.328 61.661, 425.534 62.945 M 161.750 68.658 C 156.111 70.998, 156.718 73.485, 163.404 75.429 C 166.376 76.293, 170.314 76.998, 172.154 76.996 C 175.945 76.992, 182.343 73.529, 181.765 71.795 C 181.386 70.658, 169.878 66.964, 167 67.055 C 166.175 67.082, 163.813 67.803, 161.750 68.658 M 441.639 72.776 C 441.375 73.202, 441.736 76.620, 442.441 80.370 C 443.488 85.945, 444.369 87.836, 447.270 90.736 C 452.187 95.654, 454.381 94.771, 453.431 88.257 C 452.413 81.266, 450.139 76.235, 446.982 73.987 C 444.016 71.875, 442.419 71.513, 441.639 72.776 M 216.606 80.513 C 214.519 84.080, 212.486 87.200, 212.087 87.446 C 211.689 87.692, 208.036 87.038, 203.969 85.992 C 199.903 84.946, 196.429 84.238, 196.249 84.418 C 196.068 84.598, 198.185 87.390, 200.952 90.623 C 203.718 93.855, 205.986 96.901, 205.991 97.392 C 205.996 97.883, 204.200 101.134, 202 104.617 C 199.800 108.101, 198 111.167, 198 111.431 C 198 111.695, 201.125 110.581, 204.945 108.955 C 208.765 107.330, 212.478 106.002, 213.195 106.004 C 213.913 106.006, 216.681 108.706, 219.346 112.004 C 222.012 115.302, 224.352 118, 224.547 118 C 224.743 118, 224.634 114.187, 224.305 109.527 L 223.707 101.055 228.603 99.022 C 240.724 93.990, 240.503 94.487, 231.500 92.490 C 227.100 91.514, 223.169 90.217, 222.765 89.608 C 222.361 88.998, 222.017 85.800, 222 82.500 C 221.954 73.450, 220.953 73.081, 216.606 80.513 M 378.663 74.670 C 378.298 75.035, 377.994 77.846, 377.986 80.917 C 377.963 90.341, 377.855 90.477, 368.757 92.556 L 360.671 94.402 367.086 97.196 C 376.827 101.439, 376.429 101.006, 376.168 107.078 C 376.040 110.060, 375.699 113.850, 375.411 115.500 C 374.927 118.275, 375.311 118.032, 380.539 112.250 C 383.647 108.813, 386.766 106, 387.471 106 C 388.175 106, 391.338 107.144, 394.499 108.542 C 397.661 109.940, 400.633 110.953, 401.104 110.792 C 401.575 110.631, 400.169 107.669, 397.980 104.210 C 395.791 100.750, 394 97.558, 394 97.115 C 394 96.673, 396.273 93.714, 399.051 90.540 C 401.828 87.365, 403.942 84.608, 403.746 84.413 C 403.551 84.218, 399.899 84.890, 395.631 85.907 L 387.871 87.756 385.364 83.785 C 383.985 81.601, 382.063 78.507, 381.092 76.910 C 380.121 75.314, 379.028 74.306, 378.663 74.670 M 145.750 79.068 C 139.272 82.488, 141.151 84.383, 153.148 86.531 C 155.777 87.002, 158.101 86.606, 161.475 85.114 C 167.717 82.353, 167.366 79.948, 160.487 78.350 C 153.272 76.675, 149.980 76.835, 145.750 79.068 M 457.338 83.561 C 456.538 85.648, 457.762 95.665, 459.146 98.355 C 462.537 104.943, 468 107.277, 468 102.136 C 468 95.170, 465.952 88.545, 462.788 85.282 C 459.230 81.610, 458.210 81.288, 457.338 83.561 M 130.898 90.290 C 124.648 94.501, 127.221 96.625, 138.882 96.882 C 148.940 97.103, 155.284 90.383, 146.489 88.823 C 138.906 87.478, 134.448 87.897, 130.898 90.290 M 471.603 94.833 C 471.320 95.291, 471.364 98.956, 471.701 102.977 C 472.220 109.167, 472.766 110.803, 475.261 113.644 C 479.876 118.901, 481 118.174, 481 109.934 C 481 102.630, 480.204 100.096, 476.701 96.250 C 474.597 93.940, 472.513 93.361, 471.603 94.833 M 117.030 102.213 C 112.582 105.227, 112.228 106.752, 115.669 108.080 C 120.389 109.902, 130.005 108.800, 133.782 106.005 C 139.142 102.039, 137.766 100.546, 128.442 100.213 C 121.441 99.963, 119.971 100.220, 117.030 102.213 M 486.123 106.924 C 485.126 107.540, 484.871 109.798, 485.139 115.628 C 485.428 121.922, 485.972 124.162, 487.856 126.803 C 491.622 132.083, 493.443 130.785, 493.800 122.567 C 493.964 118.765, 493.591 114.426, 492.969 112.926 C 491.364 109.049, 487.775 105.903, 486.123 106.924 M 106.500 113.863 C 101.763 116.018, 99.555 118.399, 100.357 120.487 C 101.056 122.310, 111.258 122.609, 115.685 120.936 C 120.114 119.263, 124.193 114.938, 122.859 113.330 C 121.227 111.364, 111.282 111.688, 106.500 113.863 M 278.042 116.089 C 234.532 121.717, 195.847 141.284, 165.854 172.835 C 94.886 247.490, 98.811 365.958, 174.571 435.897 C 246.160 501.986, 356.606 501.220, 427.165 434.146 C 470.557 392.897, 491.241 334.708, 483.500 275.662 C 472.687 193.174, 406.826 127.313, 324.338 116.500 C 312.195 114.908, 288.779 114.700, 278.042 116.089 M 280.500 120.027 C 259.023 122.461, 240.616 128.044, 219.500 138.532 C 199.940 148.247, 188.412 156.575, 172.494 172.494 C 157.450 187.538, 148.703 199.376, 139.611 217 C 113.151 268.288, 112.381 326.852, 137.486 378.500 C 173.983 453.585, 255.551 493.830, 337.017 476.948 C 359.588 472.271, 385.742 460.837, 405 447.226 C 417.161 438.632, 438.546 417.267, 447.265 405 C 455.254 393.762, 467.721 369.170, 471.853 356.500 C 489.929 301.075, 480.676 242.178, 446.266 193.634 C 438.847 183.169, 416.831 161.153, 406.366 153.734 C 382.848 137.063, 357.215 126.304, 329.500 121.471 C 318.633 119.576, 291.534 118.777, 280.500 120.027 M 498.275 121.726 C 497.911 122.675, 497.587 126.612, 497.556 130.476 C 497.510 136.276, 497.904 138.066, 499.818 140.750 C 504.122 146.784, 505.962 144.490, 505.986 133.062 C 505.997 128.016, 505.513 125.909, 503.750 123.319 C 501.263 119.666, 499.286 119.091, 498.275 121.726 M 138.955 129.418 L 137.702 137.836 129.356 139.020 C 124.765 139.672, 121.193 140.503, 121.418 140.868 C 121.643 141.232, 125.052 143.090, 128.993 144.996 C 135.881 148.329, 136.135 148.577, 135.564 151.429 C 135.238 153.060, 134.685 156.825, 134.336 159.795 L 133.702 165.196 138.996 159.598 C 141.908 156.519, 144.911 154, 145.670 154 C 146.429 154, 150.200 155.586, 154.050 157.525 L 161.051 161.051 157.525 154.050 C 155.586 150.200, 154 146.489, 154 145.804 C 154 145.119, 156.588 141.928, 159.750 138.714 C 164.569 133.817, 165.095 132.958, 163 133.409 C 157.971 134.491, 148.656 135.988, 148.448 135.747 C 148.331 135.611, 146.601 132.238, 144.605 128.250 C 142.608 124.263, 140.802 121, 140.591 121 C 140.380 121, 139.644 124.788, 138.955 129.418 M 455.577 128 C 453.481 132.125, 451.646 135.635, 451.500 135.799 C 451.355 135.964, 447.541 135.460, 443.027 134.681 L 434.818 133.263 440.830 139.381 L 446.841 145.500 442.897 153.273 L 438.953 161.046 446.823 157.089 L 454.693 153.132 460.539 159.040 C 463.755 162.289, 466.487 164.847, 466.610 164.723 C 466.734 164.600, 466.433 162.249, 465.941 159.499 C 463.657 146.717, 462.971 148.543, 471.711 144.137 L 479.500 140.210 474.500 139.495 C 471.750 139.102, 467.938 138.475, 466.028 138.101 C 462.293 137.371, 462.308 137.403, 460.252 125.500 L 459.389 120.500 455.577 128 M 100 125.929 C 92.841 126.983, 87.114 131.249, 88.392 134.578 C 88.934 135.992, 89.998 136.126, 95.763 135.510 C 99.468 135.114, 103.626 134.208, 105.002 133.497 C 108.645 131.616, 111.331 128.306, 110.653 126.537 C 110.030 124.916, 107.766 124.787, 100 125.929 M 328.336 128.567 C 327.502 130.739, 329.618 132.782, 331.133 131.267 C 332.413 129.987, 331.620 127, 330 127 C 329.415 127, 328.667 127.705, 328.336 128.567 M 304 130.913 C 304 131.533, 305.148 134.843, 306.552 138.270 C 308.301 142.542, 309.008 145.914, 308.802 149 C 308.537 152.955, 308.760 153.537, 310.648 153.806 C 312.542 154.076, 312.883 153.484, 313.526 148.808 C 313.992 145.422, 315.484 141.585, 317.652 138.195 C 321.131 132.756, 321.239 131, 318.093 131 C 316.973 131, 315.629 132.496, 314.500 135 C 313.508 137.200, 312.386 139, 312.006 139 C 311.627 139, 310.777 137.200, 310.118 135 C 309.459 132.800, 308.525 131, 308.042 131 C 307.559 131, 306.452 130.727, 305.582 130.393 C 304.712 130.059, 304 130.293, 304 130.913 M 287.603 132.750 C 286.983 134.791, 283 152.736, 283 153.489 C 283 153.770, 284.069 154, 285.375 154 C 287.214 154, 287.885 153.323, 288.350 151 C 288.859 148.454, 289.411 148, 292 148 C 294.333 148, 295.273 148.588, 296 150.500 C 296.682 152.293, 297.695 153, 299.582 153 C 301.271 153, 302.046 152.552, 301.744 151.750 C 301.486 151.063, 299.750 146.115, 297.887 140.755 C 294.560 131.182, 294.444 131.010, 291.317 131.005 C 289.153 131.002, 287.965 131.560, 287.603 132.750 M 272.194 132.860 C 271.125 133.537, 271.156 134.849, 272.366 140.088 C 273.180 143.608, 273.745 146.588, 273.623 146.710 C 273.501 146.832, 271.398 144.257, 268.951 140.987 C 265.462 136.327, 263.918 135.038, 261.809 135.021 C 260.329 135.010, 258.902 135.350, 258.637 135.778 C 258.373 136.205, 259.141 141.268, 260.344 147.028 C 262.292 156.356, 262.748 157.462, 264.515 157.155 C 265.607 156.965, 266.579 156.736, 266.676 156.645 C 266.773 156.555, 266.226 153.560, 265.461 149.990 C 264.696 146.421, 264.054 143.103, 264.035 142.618 C 264.016 142.133, 266.304 144.721, 269.120 148.368 C 272.699 153.005, 274.905 155, 276.453 155 C 277.671 155, 278.900 154.767, 279.185 154.482 C 280.011 153.656, 275.545 132.680, 274.471 132.340 C 273.937 132.171, 272.912 132.405, 272.194 132.860 M 326.569 135.185 C 325.433 140.429, 323.056 154.387, 323.270 154.562 C 323.396 154.666, 324.457 155.045, 325.627 155.404 C 327.624 156.017, 327.857 155.462, 329.453 146.278 C 331.772 132.935, 331.780 133.540, 329.285 133.185 C 327.650 132.953, 326.939 133.476, 326.569 135.185 M 510.626 134.796 C 510.320 135.292, 509.551 138.831, 508.919 142.662 C 507.862 149.063, 507.938 149.959, 509.870 153.745 C 513.629 161.114, 515.444 160.252, 517.084 150.319 C 518.203 143.548, 518.144 142.990, 515.880 138.923 C 513.469 134.592, 511.640 133.155, 510.626 134.796 M 290.686 138.035 C 289.526 142.375, 289.884 144, 292 144 C 294.280 144, 294.307 143.772, 292.597 139.035 C 291.381 135.669, 291.327 135.640, 290.686 138.035 M 344.558 136.775 C 344.251 137.082, 344 142.425, 344 148.648 C 344 159.937, 344.006 159.963, 346.547 160.601 C 347.947 160.953, 349.281 161.053, 349.510 160.824 C 349.739 160.595, 352.833 156.383, 356.386 151.465 C 362.716 142.703, 363.126 141.057, 358.985 141.015 C 358.152 141.007, 355.677 143.909, 353.485 147.464 C 351.293 151.020, 349.275 153.946, 349 153.967 C 348.725 153.988, 348.644 150.239, 348.820 145.637 C 349.113 137.954, 348.975 137.227, 347.128 136.744 C 346.021 136.454, 344.865 136.469, 344.558 136.775 M 89.500 139.930 C 84.658 140.753, 82.254 142.010, 79.123 145.357 C 75.301 149.444, 76.839 151.347, 83.254 150.469 C 86.139 150.074, 89.625 149.329, 91 148.812 C 94.482 147.504, 99 142.986, 99 140.813 C 99 138.848, 96.975 138.660, 89.500 139.930 M 241.636 140.711 C 239.899 141.158, 239.821 141.981, 240.490 152.845 C 240.885 159.255, 241.293 164.595, 241.398 164.710 C 241.502 164.826, 242.580 164.661, 243.794 164.344 C 245.517 163.893, 246 163.031, 246 160.402 C 246 157.601, 246.441 156.927, 248.638 156.376 C 250.682 155.863, 251.660 156.223, 252.981 157.974 C 254.250 159.657, 255.251 160.055, 256.898 159.532 C 258.115 159.146, 258.973 158.468, 258.805 158.026 C 258.637 157.584, 255.800 153.363, 252.500 148.648 C 246.720 140.388, 245.724 139.660, 241.636 140.711 M 363.564 154.634 C 361.054 159.933, 359 164.564, 359 164.926 C 359 165.287, 361.543 166.831, 364.652 168.355 C 369.112 170.543, 370.479 170.850, 371.136 169.814 C 372.511 167.646, 372.159 167.044, 368.500 165.299 C 364.586 163.432, 364.449 163.135, 366.322 160.574 C 367.562 158.878, 367.841 158.867, 370.784 160.388 C 373.739 161.916, 373.981 161.903, 374.911 160.167 C 375.737 158.622, 375.331 158.052, 372.414 156.660 C 369.383 155.215, 369.069 154.739, 370 153.001 C 371.010 151.112, 371.270 151.086, 374.711 152.524 C 377.623 153.740, 378.516 153.790, 379.162 152.773 C 379.606 152.073, 379.976 151.256, 379.985 150.958 C 379.999 150.464, 369.505 145, 368.541 145 C 368.314 145, 366.074 149.335, 363.564 154.634 M 244.414 148 C 244.721 149.375, 244.979 151.063, 244.986 151.750 C 245.001 153.132, 247.592 153.469, 248.381 152.192 C 248.656 151.747, 247.750 150.060, 246.368 148.442 C 243.882 145.532, 243.861 145.528, 244.414 148 M 222.077 149.589 C 216.245 154.496, 219.066 161.290, 226.890 161.182 C 233.476 161.091, 234.574 165.195, 228.415 166.885 C 226.285 167.469, 225.593 168.199, 225.845 169.592 C 226.334 172.293, 226.526 172.361, 230.134 171.103 C 234.883 169.448, 237 167.114, 237 163.536 C 237 158.715, 234.933 156.648, 229.873 156.406 C 223.827 156.118, 224 156.175, 224 154.479 C 224 153.642, 225.238 152.426, 226.750 151.776 C 228.262 151.127, 229.623 150.526, 229.774 150.441 C 229.924 150.356, 229.763 149.547, 229.417 148.643 C 228.500 146.254, 225.596 146.628, 222.077 149.589 M 519.450 157.299 C 517.765 164.447, 517.772 164.696, 519.808 169.299 C 522.806 176.076, 524.765 175.383, 526.856 166.807 C 528.410 160.435, 528.298 157.692, 526.315 153.534 C 523.531 147.697, 521.444 148.842, 519.450 157.299 M 79.532 155.035 C 73.975 156.411, 72 157.435, 69.782 160.092 C 64.852 165.998, 66.037 167.372, 74.529 165.595 C 81.918 164.049, 84.289 162.807, 86.930 159.098 C 90.910 153.509, 89.291 152.620, 79.532 155.035 M 199 157.941 C 199 159.009, 199.359 160.104, 199.798 160.375 C 201.223 161.256, 203.308 159.246, 202.677 157.601 C 201.810 155.341, 199 155.601, 199 157.941 M 389.913 158.605 C 388.796 159.950, 388.954 160.456, 390.957 161.967 L 393.315 163.746 388.175 171.042 C 384.233 176.637, 383.293 178.648, 384.140 179.669 C 386.081 182.007, 387.394 181.091, 392.307 173.968 C 394.950 170.136, 397.483 167, 397.934 167 C 398.386 167, 399.320 167.681, 400.010 168.512 C 400.965 169.663, 401.593 169.753, 402.633 168.890 C 404.794 167.097, 404.335 166.309, 398.750 162.217 C 391.436 156.858, 391.381 156.836, 389.913 158.605 M 202.573 161.323 C 200.887 162.556, 201.191 163.252, 207.047 171.573 C 210.503 176.483, 213.452 180.658, 213.600 180.852 C 213.749 181.046, 214.781 180.567, 215.893 179.788 C 217.857 178.412, 217.729 178.109, 211.418 169.186 C 207.845 164.134, 204.800 160, 204.652 160 C 204.503 160, 203.568 160.595, 202.573 161.323 M 287.842 163.050 C 241.496 167.175, 199.368 195.495, 178.160 236.785 C 171.874 249.021, 166.697 264.327, 164.582 276.926 C 162.534 289.128, 162.534 310.872, 164.582 323.074 C 174.094 379.739, 220.261 425.906, 276.926 435.418 C 288.956 437.437, 310.653 437.453, 323 435.452 C 359.986 429.458, 395.256 406.117, 415.855 374 C 447.472 324.705, 444.021 259.948, 407.335 214.094 C 383.681 184.529, 349.392 166.349, 311 163.015 C 304.675 162.466, 298.825 162.076, 298 162.148 C 297.175 162.220, 292.604 162.626, 287.842 163.050 M 530.548 168.260 C 527.396 175.875, 526.781 179.472, 527.912 183.673 C 529.100 188.084, 531.553 190.900, 532.909 189.408 C 534.342 187.831, 537 178.775, 537 175.471 C 537 171.202, 535.198 166.290, 533.375 165.590 C 532.370 165.205, 531.455 166.069, 530.548 168.260 M 189.629 171.301 C 184.357 176.018, 183.925 176.693, 185.398 177.915 C 186.799 179.078, 187.330 179.012, 189.042 177.462 C 190.223 176.394, 191.375 176.028, 191.844 176.574 C 192.283 177.083, 194.802 180.088, 197.442 183.250 C 202.294 189.061, 204.585 190.246, 205.642 187.492 C 206.001 186.555, 204.064 183.457, 200.524 179.311 L 194.828 172.638 197.115 170.914 C 199.062 169.444, 199.205 168.952, 198.078 167.594 C 197.351 166.717, 196.473 166.011, 196.128 166.024 C 195.782 166.038, 192.858 168.412, 189.629 171.301 M 276.555 168.614 C 229.020 177.195, 188.797 212.170, 173.590 258.144 C 169.005 272.005, 167 284.740, 167 300 C 167 335.969, 180.513 368.576, 205.969 394.031 C 231.424 419.487, 264.031 433, 300 433 C 315.260 433, 327.995 430.995, 341.856 426.410 C 388.215 411.076, 423.090 370.676, 431.454 322.619 C 433.440 311.210, 433.459 288.896, 431.493 277.622 C 421.806 222.073, 377.927 178.194, 322.378 168.507 C 311.511 166.612, 287.332 166.668, 276.555 168.614 M 69 170.960 C 65.496 172.166, 62.502 174.046, 60.750 176.139 C 55.655 182.225, 57.658 184.024, 66.633 181.425 C 72.951 179.595, 79 174.461, 79 170.929 C 79 168.449, 76.264 168.458, 69 170.960 M 404.458 175.239 C 401.711 178.133, 398.169 181.943, 396.587 183.706 L 393.710 186.912 398.605 191.381 C 402.839 195.245, 403.696 195.658, 404.950 194.438 C 406.213 193.210, 406.025 192.636, 403.500 190 C 400.830 187.213, 400.728 186.844, 402.214 185.357 C 403.701 183.871, 404.065 183.910, 406.802 185.859 C 409.509 187.787, 409.894 187.833, 411.108 186.370 C 412.256 184.986, 412.031 184.436, 409.483 182.405 C 406.683 180.172, 406.617 179.954, 408.249 178.323 C 409.880 176.691, 410.125 176.746, 412.831 179.338 C 415.408 181.807, 415.822 181.920, 417.020 180.476 C 418.168 179.092, 417.746 178.272, 413.901 174.427 L 409.453 169.979 404.458 175.239 M 175.703 184.792 C 173.666 186.878, 172 189.064, 172 189.650 C 172 190.236, 175.568 193.937, 179.929 197.874 L 187.858 205.034 192.377 200.267 C 196.310 196.118, 196.710 195.312, 195.462 194.050 C 194.211 192.784, 193.642 192.969, 191 195.500 C 188.208 198.175, 187.846 198.274, 186.351 196.780 C 184.856 195.285, 184.896 194.947, 186.865 192.444 C 189.440 189.171, 189.511 188.410, 187.318 187.569 C 186.185 187.134, 184.903 187.832, 183.386 189.712 C 181.247 192.363, 181.049 192.415, 179.368 190.764 C 177.679 189.106, 177.725 188.896, 180.409 186.095 C 183.117 183.269, 183.221 181, 180.644 181 C 179.963 181, 177.740 182.706, 175.703 184.792 M 539.094 184.250 C 538.623 185.488, 537.509 188.242, 536.619 190.372 C 535.728 192.502, 535 195.329, 535 196.654 C 535 200.209, 537.681 206, 539.327 206 C 541.146 206, 545.359 194.918, 545.195 190.564 C 544.919 183.215, 541.023 179.183, 539.094 184.250 M 61.639 186.992 C 56.042 189.178, 53.405 191.316, 51.313 195.363 C 48.979 199.875, 50.851 200.805, 57.631 198.500 C 60.723 197.449, 64.329 195.742, 65.646 194.706 C 68.037 192.826, 71 188.035, 71 186.050 C 71 184.471, 67.085 184.865, 61.639 186.992 M 418.996 188.277 C 417.069 190.050, 413.492 193.195, 411.047 195.266 C 406.952 198.736, 406.730 199.159, 408.222 200.651 C 409.714 202.143, 410.054 202.103, 412.556 200.135 C 414.967 198.238, 418 197.281, 418 198.417 C 418 198.646, 417.156 200.804, 416.124 203.211 C 414.293 207.482, 414.293 207.643, 416.112 209.890 L 417.976 212.192 419.030 209.346 C 423.461 197.373, 422.723 198.311, 428.222 197.660 C 434.188 196.953, 434.727 196.581, 432.923 194.407 C 431.846 193.109, 430.425 192.883, 426.140 193.325 L 420.720 193.884 423.861 190.643 C 426.306 188.121, 426.736 187.136, 425.801 186.201 C 423.993 184.393, 422.834 184.747, 418.996 188.277 M 293.456 192.016 C 274.440 194.024, 253.246 202.605, 236.500 215.076 C 233.750 217.124, 230.600 218.963, 229.500 219.163 C 226.537 219.703, 226.743 224.392, 229.748 224.819 C 231.380 225.051, 232.255 224.460, 232.938 222.663 C 233.456 221.301, 236.719 218.162, 240.190 215.686 C 254.142 205.733, 271.671 198.288, 287.760 195.483 C 300.609 193.242, 300.157 193.103, 299.802 199.187 L 299.500 204.375 292.306 205.583 C 267.306 209.780, 241.051 225.090, 226.560 243.922 C 213.928 260.338, 208 278.091, 208 299.500 C 208 324.761, 216.417 345.575, 234.418 364.824 C 237.852 368.496, 240.948 372.288, 241.299 373.250 C 242.024 375.239, 245.032 375.568, 246.753 373.847 C 248.323 372.277, 246.510 369, 244.073 369 C 241.837 369, 232.565 359.194, 226.868 350.806 C 213.492 331.109, 207.915 306.179, 211.958 284.153 C 213.801 274.114, 214.435 273, 218.304 273 C 221.370 273, 221.866 272.553, 224.079 267.792 C 225.411 264.928, 228.234 259.890, 230.354 256.597 C 237.365 245.707, 253.112 231, 257.762 231 C 260.720 231, 262.584 228.409, 261 226.500 C 259.342 224.502, 257.404 224.605, 255.807 226.776 C 255.088 227.754, 252.197 230.223, 249.383 232.264 C 239.273 239.596, 227.508 253.725, 221.898 265.273 C 220.378 268.402, 218.970 270, 217.733 270 C 215.319 270, 215.917 267.916, 221.154 258.076 C 235.254 231.582, 262.196 213.608, 296.812 207.600 C 300.035 207.041, 300.116 207.112, 299.812 210.214 L 299.500 213.403 291 214.640 C 286.325 215.321, 280.531 216.580, 278.124 217.439 C 275.718 218.297, 272.728 219, 271.481 219 C 268.829 219, 267.467 221.652, 269.105 223.627 C 270.700 225.549, 271.787 225.357, 275.100 222.570 C 277.801 220.296, 285.962 218.004, 296.250 216.627 L 300 216.126 300 224.063 L 300 232 295.958 232 C 291.369 232, 277.420 234.705, 274.812 236.101 C 273.500 236.803, 272.811 236.515, 271.949 234.905 C 270.488 232.175, 271.169 231.603, 278.986 228.989 C 283.300 227.546, 286.693 227.015, 289.119 227.403 C 293.770 228.147, 296.293 225.864, 293.694 223.265 C 292.406 221.977, 291.576 221.857, 289.780 222.700 C 288.526 223.289, 282.911 225.215, 277.302 226.981 C 248.409 236.078, 226.810 259.673, 221.904 287.500 C 221.225 291.350, 220.047 295.234, 219.287 296.131 C 218.103 297.529, 218.137 297.994, 219.522 299.379 C 220.751 300.608, 221.604 300.747, 223.075 299.960 C 224.648 299.118, 224.901 298.227, 224.422 295.212 C 223.546 289.700, 226.463 278.747, 231.654 268.049 C 235.516 260.091, 237.604 257.247, 244.870 250.049 C 252.574 242.418, 264.499 234, 267.606 234 C 268.239 234, 269.326 235.373, 270.022 237.052 C 270.949 239.292, 271.714 239.916, 272.893 239.396 C 277.057 237.562, 289.010 234.963, 295.942 234.384 C 315.733 232.734, 337.512 242.281, 350.955 258.500 C 359.581 268.906, 366 286.614, 366 300 C 366 308.376, 363.119 319.975, 358.798 329 C 355.490 335.908, 353.114 339.113, 346.114 346.114 C 339.071 353.156, 335.949 355.463, 329 358.761 C 317.658 364.144, 311.523 365.500, 299 365.389 C 283.349 365.252, 271.160 361.449, 258.975 352.901 L 253.018 348.723 248.973 351.399 C 246.749 352.871, 245.198 354.511, 245.526 355.043 C 247.901 358.885, 270.148 370.761, 279.250 373.045 C 281.863 373.701, 284 374.634, 284 375.119 C 284 376.701, 288.769 376.044, 289.410 374.373 C 290.331 371.974, 288.056 369.769, 285.358 370.446 C 281.016 371.536, 260.060 362.641, 252.325 356.424 C 249.735 354.343, 249.656 354.093, 251.376 353.422 C 252.542 352.967, 254.245 353.337, 255.876 354.401 C 261.542 358.096, 276.809 365.037, 282.500 366.505 C 285.800 367.356, 291.087 368.330, 294.250 368.669 L 300 369.285 300 375.736 L 300 382.188 294.750 381.477 C 284.399 380.076, 274.336 376.945, 264.500 372.065 C 254.590 367.148, 241.085 357.543, 241.029 355.372 C 240.982 353.553, 238.389 351.914, 236.627 352.590 C 234.463 353.420, 234.546 356.893, 236.750 357.718 C 237.713 358.078, 241.316 360.521, 244.757 363.146 C 261.302 375.767, 274.023 381.044, 296.250 384.506 L 300 385.091 300 392.057 L 300 399.024 295.750 398.435 C 283.289 396.708, 267.758 392.822, 263.978 390.487 C 263.173 389.989, 263.981 387.142, 265.462 385.257 C 265.567 385.123, 269.344 386.360, 273.856 388.007 C 278.367 389.653, 282.912 391, 283.957 391 C 285.002 391, 286.532 391.675, 287.357 392.500 C 289.269 394.412, 291.413 394.412, 293 392.500 C 294.925 390.180, 292.445 387.743, 288.942 388.513 C 285.912 389.178, 277.275 386.953, 269.356 383.468 L 264.212 381.204 262.454 385.102 C 261.487 387.246, 260.418 389, 260.077 389 C 259.737 389, 255.993 386.971, 251.757 384.492 C 243.395 379.597, 231.318 368.966, 229.909 365.260 C 228.749 362.210, 226.230 361.342, 224.258 363.313 C 222.951 364.621, 222.898 365.172, 223.958 366.450 C 224.666 367.302, 225.538 368, 225.897 368 C 226.256 368, 229.208 370.514, 232.458 373.587 C 247.512 387.823, 267.302 397.071, 289.789 400.379 C 299.707 401.838, 300.536 402.162, 299.728 404.266 C 299.018 406.116, 282.234 404.478, 279.824 402.323 C 277.360 400.119, 274.500 401.027, 274.500 404.014 C 274.500 406.217, 274.955 406.521, 278.500 406.683 C 280.700 406.784, 288.852 407.182, 296.615 407.568 L 310.730 408.270 311.888 399.885 C 314.185 383.252, 313.947 384.045, 316.838 383.396 C 318.302 383.068, 321.857 382.089, 324.738 381.221 C 327.619 380.353, 330.120 379.835, 330.297 380.071 C 330.473 380.307, 333.707 384.550, 337.484 389.500 C 341.261 394.450, 344.471 398.661, 344.617 398.858 C 345.089 399.493, 363 388.882, 363 387.968 C 363 387.483, 361.031 382.286, 358.626 376.418 L 354.251 365.749 360.082 359.918 L 365.913 354.087 376.549 358.544 C 382.400 360.995, 387.552 363, 387.998 363 C 388.955 363, 398.174 347.531, 398.367 345.602 C 398.440 344.875, 394.297 341.022, 389.160 337.039 C 381.306 330.950, 379.918 329.456, 380.435 327.649 C 380.773 326.467, 381.707 323.069, 382.510 320.099 C 383.312 317.128, 384.163 314.503, 384.400 314.266 C 384.637 314.030, 390.044 313.136, 396.415 312.280 L 408 310.725 408 299.862 C 408 293.888, 407.628 289, 407.174 289 C 405.443 289, 384.601 285.934, 384.302 285.636 C 383.513 284.846, 380.181 270.516, 380.622 269.803 C 381.032 269.139, 395.100 258.062, 398.343 255.849 C 399.401 255.127, 390.183 238.008, 388.359 237.307 C 387.731 237.066, 382.438 238.883, 376.598 241.344 L 365.979 245.819 360.094 239.934 L 354.209 234.049 358.638 223.332 C 361.074 217.438, 362.884 212.140, 362.660 211.558 C 361.990 209.811, 344.922 200.668, 344.107 201.619 C 343.692 202.104, 340.301 206.467, 336.570 211.316 C 331.524 217.876, 329.367 219.970, 328.144 219.499 C 327.240 219.150, 323.867 218.250, 320.648 217.498 C 317.430 216.745, 314.617 215.950, 314.397 215.730 C 314.177 215.511, 313.317 210.419, 312.486 204.415 C 311.655 198.412, 310.770 192.938, 310.519 192.250 C 310.017 190.874, 304.930 190.804, 293.456 192.016 M 165.388 196.747 C 164.518 198.125, 164.798 199.304, 166.715 202.341 C 168.051 204.457, 168.985 206.348, 168.790 206.543 C 168.595 206.738, 166.518 206.411, 164.175 205.816 C 160.420 204.863, 159.751 204.958, 158.542 206.611 C 156.759 209.050, 157.802 209.665, 165.168 210.519 C 169.199 210.987, 172.160 212.057, 174.886 214.032 C 178.663 216.768, 178.866 216.805, 180.461 215.043 C 182.024 213.316, 181.895 213.054, 178.154 210.365 C 175.536 208.483, 173.143 205.392, 171.105 201.258 C 169.407 197.816, 167.675 195, 167.254 195 C 166.834 195, 165.994 195.786, 165.388 196.747 M 84.017 196.250 C 84.027 196.387, 84.903 199.844, 85.964 203.931 C 87.025 208.019, 87.675 211.717, 87.408 212.149 C 87.140 212.582, 84.015 214.677, 80.463 216.804 C 76.911 218.931, 74.304 220.971, 74.669 221.336 C 75.034 221.701, 77.846 222.006, 80.917 222.014 C 90.324 222.037, 90.481 222.160, 92.525 231.108 C 93.524 235.481, 94.644 238.708, 95.014 238.280 C 95.385 237.851, 96.728 234.800, 98 231.500 C 99.272 228.200, 100.688 225.076, 101.148 224.558 C 101.996 223.602, 110.037 223.626, 115.500 224.601 C 118.259 225.093, 117.978 224.658, 112 219.188 L 105.500 213.240 108.633 205.620 C 110.356 201.429, 111.530 198, 111.241 198 C 110.952 198, 107.866 199.800, 104.383 202 C 100.899 204.200, 97.700 205.996, 97.275 205.991 C 96.849 205.986, 93.876 203.736, 90.669 200.991 C 85.435 196.511, 83.963 195.462, 84.017 196.250 M 509 201.032 C 505.975 203.752, 503.151 205.983, 502.725 205.989 C 502.300 205.995, 499.101 204.200, 495.617 202 C 492.134 199.800, 489.037 198, 488.735 198 C 488.433 198, 489.482 201.037, 491.066 204.750 C 493.935 211.475, 494.675 214.961, 493.250 215.043 C 492.837 215.067, 490.060 217.272, 487.079 219.943 L 481.657 224.800 490.304 224.261 L 498.952 223.721 500.981 228.611 C 506.019 240.747, 505.489 240.557, 507.641 231 L 509.555 222.500 517.242 221.953 C 521.469 221.651, 525.158 221.176, 525.438 220.895 C 525.719 220.615, 523.035 218.681, 519.475 216.599 C 515.915 214.516, 512.800 212.486, 512.554 212.087 C 512.308 211.689, 512.975 208.019, 514.036 203.931 C 515.097 199.844, 515.973 196.387, 515.983 196.250 C 516.055 195.195, 513.689 196.816, 509 201.032 M 282.964 199.319 C 282.159 200.044, 278.800 201.443, 275.500 202.427 C 267.864 204.705, 254.185 211.453, 245.916 217.020 C 242.387 219.395, 235.609 225.123, 230.854 229.749 L 222.208 238.159 219.124 236.564 L 216.041 234.970 212.570 239.735 C 201.902 254.378, 193 280.487, 193 297.131 C 193 301.991, 193.006 302, 196.362 302 L 199.724 302 200.400 308.604 C 201.170 316.115, 203.233 325.574, 205.507 332.019 C 206.359 334.435, 206.833 336.993, 206.560 337.705 C 205.704 339.934, 207.119 342, 209.500 342 C 212.710 342, 213.495 339.156, 211.014 336.515 C 208.548 333.890, 204.322 317.893, 203.258 307.155 L 202.500 299.500 199.250 299.187 C 196.148 298.888, 196.001 298.682, 196.013 294.687 C 196.033 288.256, 199.412 273.402, 202.912 264.358 C 205.466 257.756, 214.342 241.325, 216.541 239.125 C 216.827 238.839, 218.410 239.402, 220.058 240.375 L 223.054 242.145 230.061 234.642 C 238.214 225.912, 247.390 218.861, 258.152 213.058 C 269.061 207.176, 281.239 202.898, 284.959 203.642 C 288.409 204.332, 290.093 202.022, 287.989 199.487 C 286.465 197.650, 284.876 197.597, 282.964 199.319 M 547.324 200.250 C 544.735 204.328, 542 211.665, 542 214.534 C 542 218.885, 543.600 223, 545.291 223 C 547.427 223, 552.444 211.474, 552.265 206.981 C 552.017 200.766, 549.325 197.099, 547.324 200.250 M 54.266 203.951 C 48.065 206.884, 44.012 211.323, 44.004 215.191 C 43.997 218.198, 45.763 218.113, 52.696 214.776 C 58.013 212.216, 59.972 210.646, 61.659 207.594 C 63.813 203.697, 63.807 200.999, 61.643 201.001 C 61.014 201.001, 57.695 202.329, 54.266 203.951 M 429.250 207.983 C 424.163 211.259, 420 214.313, 420 214.770 C 420 217.194, 422.393 217.858, 424.907 216.132 C 426.333 215.153, 429.212 213.320, 431.305 212.060 L 435.111 209.768 430.638 217.104 C 426.306 224.207, 426.022 225.781, 428.521 228.802 C 428.809 229.150, 444.870 219.231, 446.760 217.538 C 447.773 216.630, 447.773 216.073, 446.760 214.692 C 445.600 213.112, 445.077 213.261, 440.166 216.571 C 437.233 218.548, 434.675 220.008, 434.481 219.815 C 434.288 219.621, 435.666 216.997, 437.542 213.982 C 441.268 207.998, 441.644 206.246, 439.750 203.704 C 438.620 202.186, 437.616 202.596, 429.250 207.983 M 148 213.927 C 148 215.358, 148.642 216, 150.073 216 C 151.504 216, 152.043 215.461, 151.812 214.261 C 151.310 211.655, 148 211.364, 148 213.927 M 152.961 216.073 C 152.343 217.227, 151.987 218.284, 152.169 218.421 C 153.456 219.393, 170.860 229, 171.333 229 C 171.661 229, 172.391 228.137, 172.956 227.082 C 173.863 225.387, 173.085 224.651, 166.241 220.726 C 153.536 213.441, 154.238 213.687, 152.961 216.073 M 552.618 219.250 C 547.273 227.669, 546.400 230.750, 547.625 236.875 C 548.623 241.866, 551.265 240.857, 554.861 234.110 C 557.897 228.413, 558.872 222.436, 557.393 218.582 C 556.524 216.317, 554.280 216.631, 552.618 219.250 M 48 221.323 C 41.822 224.968, 37.051 232.151, 39.137 234.665 C 40.026 235.737, 41.393 235.372, 46.346 232.744 C 52.787 229.326, 57 224.426, 57 220.352 C 57 217.121, 54.702 217.369, 48 221.323 M 147.063 228.163 C 144.579 230.829, 142.477 236.886, 143.642 238.018 C 144.114 238.476, 148.550 240.645, 153.500 242.837 C 161.594 246.422, 162.626 246.662, 163.750 245.220 C 165.608 242.838, 165.369 242.448, 161 240.732 C 157.935 239.528, 157.152 238.767, 157.649 237.472 C 158.184 236.079, 159.139 235.893, 163.074 236.415 C 167.337 236.981, 167.921 236.823, 168.516 234.949 C 169.410 232.134, 169.028 231.904, 163.111 231.687 C 160.309 231.584, 158.012 231.162, 158.008 230.750 C 157.990 229.054, 153.831 226, 151.539 226 C 150.185 226, 148.171 226.973, 147.063 228.163 M 439.500 228.842 C 435.155 231.498, 433.817 233.490, 433.704 237.467 C 433.573 242.066, 436.722 246.254, 441.157 247.380 C 443.868 248.069, 445.641 247.810, 449.298 246.192 C 457.249 242.675, 459.157 235.066, 453.505 229.414 C 450.499 226.408, 443.920 226.139, 439.500 228.842 M 148.553 232.724 C 147.876 234.485, 150.241 237, 152.574 237 C 154.209 237, 155.018 233.418, 153.684 232.084 C 152.043 230.443, 149.296 230.785, 148.553 232.724 M 440.641 234.068 C 437.055 236.888, 437.305 241.046, 441.141 242.386 C 443.154 243.090, 444.699 242.834, 447.641 241.307 C 450.971 239.578, 451.500 238.838, 451.500 235.902 C 451.500 232.641, 451.332 232.488, 447.446 232.202 C 444.483 231.984, 442.651 232.487, 440.641 234.068 M 44.487 238.373 C 38.517 242.411, 36.608 244.513, 35.295 248.500 C 33.185 254.902, 35.356 255.462, 42.816 250.438 C 48.686 246.485, 51.991 241.918, 51.996 237.750 C 52.001 234.152, 50.549 234.273, 44.487 238.373 M 554.978 241.155 C 550.876 247.502, 549.953 252.176, 552.035 256.066 C 553.660 259.102, 554.762 258.436, 559.022 251.845 C 561.864 247.447, 563 244.616, 563 241.927 C 563 233.074, 560.365 232.820, 554.978 241.155 M 287.225 241.522 C 264.965 246.356, 246.175 265.252, 241.504 287.500 C 237.226 307.877, 243.071 327.308, 257.909 342.034 C 266.633 350.692, 274.348 355.148, 285.596 358.025 C 299.705 361.633, 315.046 359.760, 328.314 352.808 C 337.451 348.021, 348.777 336.348, 353.354 327 C 365.113 302.983, 360.814 276.693, 342.061 257.939 C 327.188 243.067, 307.395 237.141, 287.225 241.522 M 289.500 243.955 C 244.384 253.763, 227.686 308.004, 259.922 340.037 C 282.594 362.567, 317.406 362.567, 340.078 340.037 C 374.967 305.367, 351.669 245.489, 302.500 243.458 C 297.550 243.253, 291.700 243.477, 289.500 243.955 M 139 245.851 C 139 246.393, 138.752 247.483, 138.448 248.274 C 138.050 249.311, 139.232 250.073, 142.698 251.011 C 152.933 253.782, 155.134 255.032, 154.804 257.880 C 154.399 261.369, 151.826 261.642, 143.340 259.096 C 136.532 257.054, 135.059 257.334, 135.015 260.679 C 134.998 261.980, 144.234 264.988, 150.500 265.722 C 153.784 266.106, 154.900 265.762, 156.735 263.797 C 162.747 257.358, 159.835 251.255, 149.196 247.995 C 145.513 246.867, 141.713 245.701, 140.750 245.404 C 139.787 245.108, 139 245.309, 139 245.851 M 250.116 249.181 C 249.629 250.456, 248.223 252.400, 246.993 253.500 C 243.699 256.446, 237.238 266.263, 233.947 273.322 C 224.595 293.385, 226.297 314.712, 238.909 335.471 C 242.856 341.967, 243.018 342.514, 241.358 343.728 C 239.773 344.886, 239.226 344.467, 236.334 339.880 C 231.585 332.349, 225.749 318.098, 225.562 313.577 C 225.361 308.717, 222.899 306.672, 220.336 309.236 C 218.778 310.793, 218.769 311.089, 220.221 312.719 C 221.094 313.698, 223.448 318.775, 225.451 324 C 229.396 334.288, 236.325 346.804, 238.547 347.656 C 239.655 348.082, 242.611 346.560, 246.870 343.371 C 247.073 343.219, 245.613 340.878, 243.625 338.170 C 229.311 318.671, 227.141 293.258, 237.932 271.500 C 242.230 262.833, 249.843 253.390, 253.721 251.916 C 256.730 250.772, 256.412 247.633, 253.241 247.181 C 251.654 246.954, 250.745 247.536, 250.116 249.181 M 449.500 251.918 C 439.548 254.922, 439.749 254.616, 442.069 263.250 C 442.823 266.055, 443.600 267, 445.152 267 C 447.039 267, 447.167 266.599, 446.565 262.585 L 445.903 258.170 451.201 256.649 C 454.116 255.812, 457.742 254.824, 459.259 254.453 C 462.502 253.660, 463.230 252.764, 462.396 250.590 C 461.604 248.527, 460.288 248.662, 449.500 251.918 M 212.200 251.200 C 211.540 251.860, 211 253.156, 211 254.079 C 211 255.003, 209.903 258.175, 208.561 261.129 C 207.220 264.083, 205.087 270.100, 203.821 274.500 C 202.556 278.900, 200.840 283.036, 200.010 283.691 C 198.069 285.223, 199.840 288.500, 202.609 288.500 C 203.984 288.500, 204.574 287.681, 204.769 285.500 C 205.588 276.380, 212.226 257.485, 215.163 255.913 C 217.416 254.707, 217.573 251.434, 215.418 250.607 C 213.404 249.834, 213.602 249.798, 212.200 251.200 M 40.313 256.564 C 36.789 259.031, 34.644 261.433, 33.572 264.112 C 30.127 272.723, 32.310 274.145, 40.146 268.393 C 45.376 264.554, 47.674 261.144, 48.185 256.462 C 48.640 252.285, 46.384 252.314, 40.313 256.564 M 559.804 257.216 C 557.883 259.572, 555.791 262.483, 555.155 263.684 C 553.647 266.535, 553.665 274.675, 555.182 275.613 C 556.467 276.406, 562.178 270.420, 564.643 265.698 C 566.293 262.537, 566.121 253.861, 564.398 253.294 C 563.792 253.095, 561.725 254.860, 559.804 257.216 M 449.775 269.559 C 446.363 271.410, 445 273.906, 445 278.299 C 445 285.198, 451.203 289.123, 459.612 287.545 C 467.978 285.975, 470.985 276.831, 465.077 270.923 C 462.636 268.482, 461.358 268.007, 457.327 268.040 C 454.672 268.062, 451.274 268.746, 449.775 269.559 M 37.591 275.250 C 33.090 279.372, 31.654 281.427, 30.910 284.814 C 29.169 292.730, 31.507 292.993, 39.242 285.750 C 44.845 280.504, 47.136 275.403, 45.641 271.508 C 44.740 269.158, 43.732 269.626, 37.591 275.250 M 133 272.500 C 133 274.682, 133.437 275, 136.441 275 C 140.551 275, 141.371 276.036, 140.478 280.101 C 139.846 282.979, 139.571 283.135, 135.654 282.827 C 132.019 282.541, 131.461 282.774, 131.188 284.693 C 130.844 287.108, 130.921 287.131, 144.936 288.932 C 153.059 289.976, 154 289.781, 154 287.055 C 154 285.652, 152.941 285.068, 149.444 284.544 C 144.910 283.864, 144.889 283.843, 145.194 280.180 L 145.500 276.500 150.113 276.828 C 154.127 277.114, 154.798 276.879, 155.285 275.017 C 155.955 272.455, 155.954 272.455, 144.432 271.081 C 132.579 269.668, 133 269.616, 133 272.500 M 279.264 273.117 C 268.795 277.141, 261 288.614, 261 300 C 261 324.613, 291.130 338.122, 308.653 321.366 C 311.319 318.816, 312.517 317.509, 311.316 318.460 C 303.250 324.849, 289.011 324.013, 281.153 316.688 C 271.920 308.082, 272.309 290.808, 281.917 282.724 C 289.571 276.283, 301.188 275.337, 309.359 280.490 L 313.500 283.102 308.670 278.566 C 300.747 271.126, 289.747 269.087, 279.264 273.117 M 561.752 275.750 C 555.894 281.762, 553.225 290.282, 556.379 292.900 C 558.683 294.812, 567.701 284.179, 568.544 278.555 C 569.687 270.936, 567.374 269.980, 561.752 275.750 M 451 275 C 445.481 280.519, 453.237 285.515, 461.050 281.474 C 464.540 279.669, 465.089 275.653, 462.066 274.035 C 458.842 272.310, 453.198 272.802, 451 275 M 81.670 284.415 C 79.014 288.037, 76.505 291, 76.095 291 C 75.686 291, 72.121 289.902, 68.175 288.560 C 64.229 287.217, 61 286.324, 61 286.575 C 61 286.826, 63.025 289.814, 65.500 293.216 C 67.975 296.617, 70 299.711, 70 300.090 C 70 300.470, 67.975 303.531, 65.500 306.893 C 63.025 310.255, 61 313.180, 61 313.394 C 61 313.608, 64.454 312.717, 68.676 311.415 C 77.427 308.714, 77.100 308.591, 82.663 316.679 L 86.500 322.258 86.787 313.794 L 87.073 305.329 94.537 302.989 C 98.641 301.701, 102 300.356, 102 300 C 102 299.644, 98.641 298.299, 94.537 297.011 L 87.073 294.671 86.787 286.251 L 86.500 277.831 81.670 284.415 M 513 286.324 L 513 294.648 505.500 297 C 501.375 298.294, 498 299.644, 498 300 C 498 300.356, 501.359 301.701, 505.463 302.989 L 512.927 305.329 513.213 313.749 L 513.500 322.169 518.330 315.585 C 520.986 311.963, 523.495 309, 523.905 309 C 524.314 309, 527.879 310.098, 531.825 311.440 C 535.771 312.783, 539 313.651, 539 313.370 C 539 313.088, 536.929 309.956, 534.398 306.409 C 529.220 299.153, 529.140 299.829, 536.273 290.704 C 537.906 288.616, 539.074 286.744, 538.871 286.544 C 538.667 286.344, 535.157 287.242, 531.072 288.539 C 526.987 289.837, 523.292 290.680, 522.862 290.415 C 522.431 290.149, 520.196 287.247, 517.895 283.965 C 515.593 280.684, 513.550 278, 513.355 278 C 513.160 278, 513 281.746, 513 286.324 M 323 291.922 C 323 296.729, 322.912 296.873, 319.250 298.054 C 313.467 299.918, 313.386 300.191, 318.099 301.925 C 322.356 303.493, 322.516 303.706, 323 308.466 L 323.500 313.385 326 309.700 C 328.749 305.647, 329.234 305.488, 333.902 307.116 C 335.662 307.729, 337.292 308.041, 337.525 307.809 C 337.757 307.576, 336.815 305.720, 335.430 303.683 L 332.914 299.979 335.457 296.645 C 336.856 294.812, 338 293.038, 338 292.703 C 338 292.369, 335.956 292.711, 333.458 293.463 L 328.916 294.830 326.325 290.915 C 324.900 288.762, 323.569 287, 323.367 287 C 323.165 287, 323 289.215, 323 291.922 M 37.740 292.104 C 32.936 296.210, 29.554 302.878, 30.164 307.042 C 30.676 310.545, 32.191 310.384, 36.936 306.323 C 41.524 302.395, 44.942 296.248, 44.978 291.857 C 45.012 287.754, 42.738 287.832, 37.740 292.104 M 563.173 293.584 C 558.477 297.604, 556.496 300.838, 555.509 306.099 C 555.034 308.635, 555.265 309.975, 556.332 310.860 C 558.535 312.689, 568.591 302.698, 569.517 297.760 C 571.010 289.802, 569.078 288.530, 563.173 293.584 M 446.374 292.467 C 445.453 294.868, 447.483 299.409, 450.079 300.755 C 451.602 301.544, 455.654 301.915, 461 301.755 C 468.918 301.517, 469.522 301.349, 469.815 299.288 C 470.117 297.159, 469.783 297.066, 460.815 296.788 L 451.500 296.500 451.184 293.750 C 450.958 291.790, 450.302 291, 448.902 291 C 447.821 291, 446.684 291.660, 446.374 292.467 M 141 295.394 C 130.673 296.482, 130.495 296.544, 130.190 299.183 C 129.817 302.414, 131.228 303.300, 139.500 305.032 L 145.500 306.288 138.250 308.727 C 131.576 310.973, 131 311.387, 131 313.944 C 131 316.548, 131.328 316.761, 136.250 317.352 C 139.137 317.699, 144.313 317.987, 147.750 317.991 C 153.752 318, 154 317.901, 154 315.500 C 154 313.053, 153.837 312.999, 146.250 312.950 L 138.500 312.899 145.500 310.663 C 150.907 308.936, 152.568 307.957, 152.800 306.361 C 153.061 304.568, 152.268 304.124, 146.800 303.002 C 138.477 301.294, 136.308 300.073, 141.500 300.019 C 143.700 299.997, 147.188 299.699, 149.250 299.358 C 152.354 298.845, 153 298.330, 153 296.369 C 153 295.066, 152.662 294.065, 152.250 294.144 C 151.838 294.223, 146.775 294.785, 141 295.394 M 37.112 311.568 C 33.260 315.782, 31.966 318.042, 31.456 321.445 C 30.263 329.400, 32.809 330.100, 38.900 323.492 C 43.571 318.425, 45 315.392, 45 310.542 C 45 305.181, 42.672 305.484, 37.112 311.568 M 446.391 308.423 C 446.030 309.364, 446.132 310.513, 446.617 310.975 C 447.103 311.437, 452.337 312.136, 458.250 312.527 L 469 313.239 469 310.619 C 469 308.315, 468.597 308, 465.651 308 C 463.809 308, 458.870 307.710, 454.675 307.355 C 448.033 306.794, 446.963 306.932, 446.391 308.423 M 470.480 310.032 C 470.092 310.660, 470.245 311.645, 470.820 312.220 C 472.164 313.564, 475.297 312.392, 474.750 310.749 C 474.194 309.078, 471.364 308.602, 470.480 310.032 M 561.218 313.761 C 556.225 318.241, 554 322.397, 554 327.243 C 554 332.823, 567.160 322.832, 569.049 315.819 C 571.235 307.700, 568.713 307.037, 561.218 313.761 M 192 313.434 C 192 314.845, 192.368 316, 192.817 316 C 193.267 316, 194.406 319.262, 195.350 323.250 C 200.488 344.966, 214.876 368.473, 230.641 380.912 C 234.413 383.888, 238.452 387.421, 239.617 388.761 C 242.305 391.857, 245.500 391.436, 245.500 387.986 C 245.500 386.105, 244.901 385.415, 243.039 385.153 C 234.618 383.965, 216.189 364.100, 207.377 346.711 C 202.502 337.092, 197.737 322.375, 197.595 316.500 C 197.483 311.830, 197.294 311.479, 194.737 311.184 C 192.383 310.911, 192 311.226, 192 313.434 M 141.500 323.986 C 139.850 324.430, 137.233 325.080, 135.685 325.432 C 133.482 325.932, 132.944 326.552, 133.209 328.285 C 133.395 329.503, 134.108 330.385, 134.793 330.243 C 146.552 327.822, 150.058 327.630, 151.742 329.314 C 153.047 330.618, 153.210 331.444, 152.412 332.709 C 151.233 334.578, 149.122 335.356, 140.750 337.008 C 135.236 338.095, 134.150 339.115, 135.779 341.677 C 136.615 342.991, 148.126 341.007, 152.872 338.733 C 157.647 336.444, 158.225 329.225, 153.975 324.975 C 151.879 322.879, 147.046 322.496, 141.500 323.986 M 444.671 324.415 C 444.390 325.146, 443.864 327.721, 443.502 330.138 C 442.429 337.292, 447.425 341.984, 452.961 339.021 C 454.290 338.310, 455.126 338.447, 456.017 339.521 C 456.693 340.334, 458.529 341, 460.099 341 C 463.742 341, 466.034 337.649, 466.301 331.935 L 466.500 327.675 459 326.011 C 445.590 323.038, 445.216 322.996, 444.671 324.415 M 39.738 328.202 C 37.828 330.566, 35.755 333.483, 35.132 334.684 C 33.643 337.557, 33.677 345.682, 35.182 346.613 C 36.467 347.406, 42.178 341.420, 44.643 336.698 C 46.312 333.499, 46.113 324.858, 44.356 324.280 C 43.727 324.073, 41.649 325.838, 39.738 328.202 M 559.377 331.965 C 554.103 336.013, 553.335 337.140, 551.975 342.816 C 550.803 347.711, 553.116 347.941, 559.472 343.564 C 564.995 339.760, 568 335.192, 568 330.599 C 568 326.879, 565.483 327.278, 559.377 331.965 M 447.357 330.513 C 446.680 332.276, 448.641 335, 450.587 335 C 452.717 335, 454.516 330.942, 452.853 329.888 C 450.730 328.543, 447.993 328.854, 447.357 330.513 M 457.180 333.250 C 457.605 336.237, 461.531 336.902, 462.261 334.110 C 462.911 331.623, 462.311 331, 459.264 331 C 457.344 331, 456.925 331.452, 457.180 333.250 M 440.514 342.956 C 440.038 344.455, 440.485 345.572, 442.074 346.859 C 443.792 348.250, 444.148 349.273, 443.632 351.331 C 443.072 353.561, 442.409 354, 439.598 354 C 437.041 354, 436.104 354.495, 435.694 356.061 C 435.018 358.646, 435.262 358.713, 448.012 359.474 L 458.523 360.102 459.664 357.078 C 460.802 354.063, 460.782 354.039, 452.256 347.940 C 441.899 340.531, 441.357 340.301, 440.514 342.956 M 41.591 347.304 C 37.773 352.848, 36.312 358.122, 37.397 362.446 C 38.425 366.541, 40.760 365.438, 45.022 358.845 C 47.864 354.447, 49 351.616, 49 348.927 C 49 340.419, 46.682 339.911, 41.591 347.304 M 156.074 343.411 C 155.273 344.376, 155.235 345.027, 155.951 345.470 C 157.647 346.518, 157.167 352.539, 155.250 354.267 C 150.643 358.419, 144.629 357.153, 143.188 351.727 C 142.545 349.302, 141.855 348.586, 140.416 348.845 C 137.717 349.331, 137.670 349.470, 138.929 353.286 C 141.303 360.479, 147.315 363.297, 154.462 360.568 C 161.562 357.856, 163.946 351.663, 160.474 344.950 C 158.776 341.666, 157.804 341.326, 156.074 343.411 M 557.247 349.520 C 551.445 353.427, 549.330 356.099, 548.414 360.681 C 547.513 365.185, 549.391 365.600, 554.844 362.100 C 560.822 358.264, 563.414 355.424, 564.850 351.135 C 566.923 344.943, 564.734 344.478, 557.247 349.520 M 447.667 351.667 C 445.826 353.507, 447.216 354.999, 450.750 354.978 L 454.500 354.956 452 353 C 449.258 350.855, 448.662 350.672, 447.667 351.667 M 45.231 365.877 C 43.092 369.767, 42 373.120, 42 375.795 C 42 384.389, 44.559 385.289, 48.980 378.250 C 52.439 372.743, 53.489 368.421, 52.566 363.500 C 51.562 358.146, 49.030 358.966, 45.231 365.877 M 92.549 368.500 C 91.568 372.900, 90.255 376.831, 89.633 377.235 C 89.010 377.639, 85.949 377.976, 82.832 377.985 C 73.527 378.010, 73.114 378.765, 80.069 383.042 C 83.459 385.127, 86.614 387.214, 87.078 387.678 C 87.543 388.143, 87.061 391.876, 86.007 395.973 C 84.953 400.071, 84.271 403.605, 84.493 403.826 C 84.714 404.047, 87.541 401.927, 90.775 399.114 C 94.009 396.301, 97.022 394, 97.470 394 C 97.917 394, 101.134 395.800, 104.617 398 C 108.101 400.200, 111.161 402, 111.419 402 C 111.676 402, 110.562 398.788, 108.943 394.862 C 105.964 387.637, 105.388 385.035, 106.750 384.957 C 107.162 384.933, 109.975 382.697, 113 379.988 L 118.499 375.062 109.799 375.676 L 101.100 376.290 99.517 372.395 C 98.647 370.253, 97.124 366.700, 96.133 364.500 L 94.332 360.500 92.549 368.500 M 502.151 368.250 L 499.109 375.500 490.382 375.401 L 481.655 375.302 484.587 377.901 C 486.199 379.331, 489.167 381.850, 491.182 383.500 L 494.845 386.500 491.894 393.415 C 490.271 397.219, 489.069 400.686, 489.222 401.121 C 489.375 401.556, 492.295 400.131, 495.712 397.956 C 499.128 395.780, 502.298 394, 502.755 394 C 503.212 394, 506.238 396.242, 509.478 398.982 C 512.719 401.722, 515.499 403.835, 515.656 403.677 C 515.813 403.520, 515.108 399.889, 514.088 395.609 L 512.234 387.826 517.619 384.381 C 520.582 382.486, 523.679 380.677, 524.503 380.361 C 527.662 379.148, 525.777 378, 520.625 378 C 509.724 378, 509.467 377.821, 507.539 368.900 C 506.600 364.555, 505.688 361, 505.512 361 C 505.336 361, 503.824 364.262, 502.151 368.250 M 432.667 362.667 C 431.203 364.130, 432.169 365.902, 435.500 367.867 C 440.457 370.792, 439.883 372, 433.535 372 C 429.156 372, 427.865 372.384, 427.035 373.934 C 426.466 374.998, 426 376.144, 426 376.482 C 426 376.819, 429.261 376.961, 433.246 376.797 L 440.492 376.500 442.996 381.247 C 445.836 386.631, 446.697 387.056, 447.585 383.516 C 448.018 381.791, 447.389 379.634, 445.527 376.456 L 442.846 371.881 447.059 374.030 C 450.467 375.769, 451.433 375.923, 452.120 374.840 C 453.736 372.291, 452.925 371.479, 444.036 366.750 C 434.905 361.892, 433.828 361.505, 432.667 362.667 M 553.025 367.365 C 547.141 370.782, 543 375.855, 543 379.648 C 543 382.803, 544.659 382.628, 551.643 378.737 C 556.134 376.235, 558.020 374.446, 559.730 371.066 C 561.399 367.766, 561.683 366.323, 560.858 365.328 C 559.443 363.624, 559.486 363.612, 553.025 367.365 M 166.226 367.174 C 165.327 368.073, 165.549 369.152, 167.170 371.776 C 168.926 374.616, 169.050 375.355, 167.894 376.086 C 165.469 377.622, 164.097 377.088, 162.491 373.983 C 161.147 371.384, 160.651 371.116, 158.906 372.050 L 156.881 373.134 158.899 376.554 L 160.917 379.974 158.873 381.068 C 156.519 382.328, 156.755 382.484, 154.593 378.233 C 153.160 375.416, 152.657 375.113, 150.936 376.034 C 148.981 377.081, 148.996 377.200, 151.721 382.149 C 153.249 384.926, 154.975 387.392, 155.555 387.631 C 156.622 388.069, 175 378.293, 175 377.287 C 175 376.150, 168.819 366, 168.127 366 C 167.727 366, 166.872 366.528, 166.226 367.174 M 50.708 382.522 C 47.702 388.652, 47.083 396.364, 49.348 399.462 C 51.218 402.019, 52.783 400.740, 55.612 394.343 C 58.129 388.651, 58.698 382.173, 56.965 378.934 C 55.253 375.736, 53.560 376.707, 50.708 382.522 M 423.004 380.495 C 422.004 381.700, 422.081 382.474, 423.397 384.484 C 424.754 386.554, 424.816 387.328, 423.766 389.042 C 422.771 390.665, 421.834 390.984, 419.388 390.534 C 417.238 390.138, 415.877 390.444, 414.981 391.523 C 413.197 393.673, 414.018 394.214, 425.405 398.379 L 435.310 402.003 436.905 399.751 C 437.782 398.513, 438.500 397.178, 438.500 396.785 C 438.500 395.805, 425.655 379.072, 424.872 379.032 C 424.527 379.014, 423.687 379.673, 423.004 380.495 M 547.268 385.024 C 540.761 388.018, 537.011 392.302, 537.004 396.750 C 536.999 399.691, 538.248 399.591, 545.734 396.049 C 552.229 392.976, 556.290 388.334, 555.767 384.578 C 555.377 381.776, 554.193 381.838, 547.268 385.024 M 176.277 388.899 C 173.208 390.979, 170.272 391.952, 165.527 392.460 C 161.937 392.845, 159.014 393.461, 159.032 393.830 C 159.049 394.198, 159.700 395.340, 160.477 396.367 C 161.693 397.972, 162.340 398.077, 165.095 397.117 C 170.678 395.170, 171.418 395.588, 169.082 399.368 C 166.630 403.335, 166.465 405.311, 168.448 406.957 C 169.654 407.958, 170.474 407.009, 173.368 401.263 C 175.601 396.827, 178.077 393.520, 180.308 391.991 C 183.247 389.977, 183.604 389.339, 182.648 387.807 C 181.214 385.512, 181.294 385.498, 176.277 388.899 M 427.207 391.193 C 426.543 391.857, 426 392.716, 426 393.102 C 426 393.793, 432.089 396.250, 432.573 395.755 C 432.709 395.615, 431.829 394.259, 430.617 392.743 C 428.896 390.590, 428.149 390.251, 427.207 391.193 M 57.250 399.525 C 54.768 405.615, 54.371 411.526, 56.178 415.492 C 57.945 419.370, 59.920 418.166, 62.595 411.580 C 65.254 405.034, 65.542 401.854, 63.902 397.149 C 62.214 392.306, 59.847 393.151, 57.250 399.525 M 181.500 404.518 C 174.655 410.871, 173.660 412.200, 174.609 413.722 C 175.219 414.700, 176.119 415.350, 176.609 415.167 C 177.099 414.983, 180.975 411.695, 185.223 407.860 C 192.136 401.618, 192.819 400.683, 191.732 398.943 C 191.065 397.874, 190.290 397.021, 190.009 397.046 C 189.729 397.072, 185.900 400.434, 181.500 404.518 M 409.100 398.379 C 408.189 399.477, 409.100 400.804, 413.558 404.879 C 416.640 407.696, 419.012 409.993, 418.831 409.985 C 418.649 409.977, 414.909 408.855, 410.521 407.492 C 402.890 405.121, 402.465 405.091, 400.773 406.782 C 399.081 408.474, 399.350 408.895, 406.945 416.445 C 413.874 423.334, 415.091 424.169, 416.495 423.004 C 417.932 421.812, 417.544 421.102, 412.891 416.389 L 407.677 411.110 415.516 413.599 L 423.356 416.089 425.401 414.043 L 427.447 411.997 419.999 404.499 C 415.902 400.374, 412.031 397, 411.397 397 C 410.764 397, 409.730 397.621, 409.100 398.379 M 540.500 402.132 C 534.719 404.471, 532.383 406.358, 530.313 410.363 C 528.033 414.771, 529.809 415.741, 536.370 413.672 C 542.690 411.680, 546.446 408.972, 548.561 404.882 C 551.284 399.617, 548.806 398.772, 540.500 402.132 M 194.455 405.638 C 191.859 417.252, 191.753 417.431, 186.794 418.500 C 181.039 419.740, 180.513 420.249, 182.826 422.342 C 184.499 423.857, 185.104 423.872, 189.582 422.514 C 192.287 421.693, 194.635 421.017, 194.801 421.011 C 194.966 421.005, 193.882 422.599, 192.391 424.554 C 189.899 427.821, 189.810 428.239, 191.290 429.718 C 192.769 431.198, 193.254 430.931, 197.289 426.414 C 208.723 413.614, 208.179 414.472, 206.068 412.562 C 204.260 410.925, 204.070 410.987, 201.899 413.923 C 199.016 417.823, 196.512 418.081, 197.440 414.383 C 199.189 407.416, 199.158 406.453, 197.127 404.615 C 195.133 402.810, 195.082 402.830, 194.455 405.638 M 66.485 411.250 C 62.558 422.113, 62.201 425.148, 64.201 430.679 C 66.166 436.113, 68.503 435.003, 71.019 427.443 C 73.348 420.444, 73.184 416.135, 70.438 412.216 C 68.706 409.742, 67.166 409.366, 66.485 411.250 M 392 414.154 C 390.625 415.300, 388.407 417.099, 387.071 418.153 C 384.844 419.910, 384.775 420.203, 386.241 421.670 C 387.708 423.137, 388.068 423.092, 390.556 421.135 C 392.048 419.961, 393.601 419, 394.006 419 C 394.410 419, 396.937 421.914, 399.621 425.475 C 404.617 432.105, 405.957 432.962, 407.821 430.715 C 408.622 429.751, 407.262 427.321, 402.367 420.965 C 398.782 416.309, 395.544 412.403, 395.174 412.285 C 394.803 412.167, 393.375 413.008, 392 414.154 M 170.336 415.567 C 169.502 417.739, 171.618 419.782, 173.133 418.267 C 174.413 416.987, 173.620 414, 172 414 C 171.415 414, 170.667 414.705, 170.336 415.567 M 209.158 420.866 C 208.521 422.992, 208 425.467, 208 426.366 C 208 427.327, 207.186 428, 206.023 428 C 203.549 428, 200.738 432.142, 201.173 435.148 C 201.461 437.141, 209.048 444.066, 210.828 443.960 C 211.197 443.937, 214.290 439.802, 217.701 434.769 C 223.727 425.877, 223.845 425.580, 221.886 424.208 C 220.778 423.431, 219.754 422.954, 219.611 423.148 C 219.469 423.342, 218.315 425.001, 217.047 426.835 C 215.076 429.688, 214.540 429.969, 213.348 428.777 C 212.156 427.584, 212.167 426.777, 213.429 423.201 C 214.809 419.291, 214.782 418.954, 213.018 418.010 C 210.391 416.604, 210.448 416.561, 209.158 420.866 M 532 418.960 C 526.267 420.934, 521 425.844, 521 429.212 C 521 431.423, 522.635 431.451, 529.846 429.363 C 535.951 427.594, 542 422.402, 542 418.929 C 542 416.449, 539.264 416.458, 532 418.960 M 379.623 423.287 C 378 424.473, 378.333 425.288, 383.913 433.787 C 387.241 438.854, 390.366 443, 390.859 443 C 391.352 443, 392.266 442.384, 392.892 441.631 C 393.781 440.559, 392.723 438.275, 388.032 431.131 C 384.735 426.109, 381.890 422, 381.710 422 C 381.530 422, 380.591 422.579, 379.623 423.287 M 75.267 427.250 C 74.043 428.814, 72 437.043, 72 440.409 C 72 444.170, 75.100 450, 77.100 450 C 78.424 450, 79.233 448.289, 80.550 442.701 C 82.235 435.553, 82.228 435.304, 80.192 430.701 C 78.048 425.855, 76.957 425.090, 75.267 427.250 M 230 430.709 C 227.010 431.809, 224.713 434.631, 221.307 441.390 C 218.563 446.833, 218.114 448.457, 219.167 449.124 C 221.730 450.749, 222.589 449.945, 226.305 442.434 C 229.399 436.181, 230.418 434.922, 232.173 435.184 C 236.458 435.822, 236.577 438.252, 232.721 446.372 C 229.177 453.835, 229.146 454.008, 231.138 455.074 C 233.572 456.377, 233.091 456.856, 236.738 449.500 C 242.115 438.654, 241.810 434.072, 235.538 431.452 C 233.628 430.653, 231.937 430.036, 231.782 430.079 C 231.627 430.122, 230.825 430.406, 230 430.709 M 364.500 431.563 C 358.653 434.585, 358.361 435.367, 360.986 440.970 C 362.282 443.737, 363.737 446, 364.221 446 C 364.704 446, 366.411 445.321, 368.015 444.492 C 371.286 442.801, 371.153 439.465, 367.849 440.329 C 365.492 440.946, 363.558 437.842, 365.247 436.153 C 367.324 434.076, 371.717 434.825, 373.927 437.635 C 377.711 442.444, 376.083 447.671, 370.250 449.449 C 367.692 450.229, 367.111 454, 369.550 454 C 372.064 454, 376.666 451.240, 378.912 448.385 C 384.155 441.720, 378.336 429.983, 369.800 430.006 C 368.535 430.010, 366.150 430.710, 364.500 431.563 M 206.359 433.507 C 205.995 434.455, 206.448 435.866, 207.424 436.828 C 209.012 438.392, 209.216 438.373, 210.575 436.540 C 212.415 434.057, 211.941 432.588, 209.167 432.180 C 207.850 431.986, 206.742 432.510, 206.359 433.507 M 524.481 434.452 C 521.721 435.129, 518.490 436.203, 517.301 436.839 C 514.396 438.394, 510.705 443.713, 511.565 445.105 C 512.400 446.457, 520.812 445.523, 525.519 443.556 C 529.212 442.014, 533.444 436.599, 532.625 434.465 C 531.978 432.778, 531.310 432.777, 524.481 434.452 M 134.582 442.165 C 135.304 446.199, 135.918 450.057, 135.947 450.738 C 135.976 451.419, 132.532 453.721, 128.293 455.854 L 120.586 459.731 129.185 461.011 L 137.785 462.290 139.207 470.895 L 140.629 479.500 144.564 471.677 C 148.352 464.149, 148.611 463.877, 151.447 464.442 C 153.068 464.765, 156.893 465.275, 159.947 465.576 L 165.500 466.124 159.750 460.709 C 156.588 457.731, 154 454.767, 154 454.122 C 154 453.478, 155.586 449.800, 157.525 445.950 L 161.051 438.949 154.050 442.475 C 150.200 444.414, 146.489 446, 145.804 446 C 145.119 446, 142.018 443.487, 138.914 440.415 L 133.270 434.830 134.582 442.165 M 460.599 440.608 C 457.904 443.574, 455.080 446, 454.324 446 C 453.568 446, 449.800 444.414, 445.950 442.475 L 438.951 438.950 442.896 446.725 L 446.841 454.500 440.806 460.642 L 434.771 466.785 439.136 466.015 C 441.536 465.591, 445.405 464.961, 447.733 464.613 L 451.967 463.982 455.837 471.675 L 459.708 479.368 460.319 475.934 C 460.655 474.045, 461.222 470.188, 461.579 467.363 L 462.228 462.225 470.864 460.809 L 479.500 459.392 472 455.579 C 467.875 453.482, 464.365 451.646, 464.201 451.500 C 464.036 451.355, 464.533 447.582, 465.304 443.118 C 466.075 438.653, 466.434 435.049, 466.103 435.108 C 465.771 435.167, 463.295 437.642, 460.599 440.608 M 350.301 437.793 C 348.467 438.958, 355.923 458.995, 358.191 458.998 C 361.273 459.002, 361.148 457.099, 357.403 447.003 C 353.825 437.356, 352.892 436.146, 350.301 437.793 M 248.658 447.457 C 245.996 455.633, 245.823 455.883, 243.470 454.989 C 241.514 454.245, 240.836 454.437, 240.016 455.971 C 238.806 458.232, 238.647 458.124, 247.367 460.986 C 253.051 462.853, 254.383 463.005, 255.101 461.870 C 256.469 459.711, 256.178 459.083, 253.500 458.411 C 252.125 458.066, 251 457.461, 251 457.067 C 251 456.673, 252.133 453.018, 253.519 448.945 C 256.206 441.045, 256.148 439, 253.238 439 C 251.831 439, 250.780 440.942, 248.658 447.457 M 85.396 441.754 C 84.789 442.164, 83.734 445.490, 83.053 449.145 C 81.917 455.231, 81.984 456.176, 83.850 460.395 C 85.264 463.589, 86.483 465, 87.831 465 C 89.427 465, 89.990 463.855, 90.984 458.583 C 91.650 455.053, 91.913 450.882, 91.569 449.313 C 90.752 445.595, 86.827 440.788, 85.396 441.754 M 512.613 450.054 C 507.235 450.956, 501 455.903, 501 459.268 C 501 460.967, 501.543 461.077, 506.750 460.438 C 509.913 460.050, 513.625 459.314, 515 458.802 C 518.474 457.510, 523 452.991, 523 450.813 C 523 448.794, 521.002 448.648, 512.613 450.054 M 219 454.073 C 219 456.636, 222.310 456.345, 222.812 453.739 C 223.043 452.539, 222.504 452, 221.073 452 C 219.642 452, 219 452.642, 219 454.073 M 374.944 453.844 C 373.325 455.156, 372.877 456.237, 373.395 457.588 C 374.087 459.391, 374.211 459.372, 375.853 457.195 C 377.001 455.674, 378.157 455.123, 379.291 455.558 C 380.435 455.997, 381 455.718, 381 454.714 C 381 453.889, 380.288 452.941, 379.418 452.607 C 377.322 451.803, 377.539 451.743, 374.944 453.844 M 295.571 454.571 C 293.552 456.591, 293.541 462.374, 295.553 464.044 C 297.714 465.838, 302.773 465.655, 304.714 463.714 C 306.938 461.490, 306.800 456.058, 304.476 454.358 C 301.979 452.533, 297.503 452.640, 295.571 454.571 M 225.598 454.736 C 225.269 455.064, 225 456.191, 225 457.240 C 225 459.590, 228.326 459.260, 228.788 456.864 C 229.102 455.234, 226.701 453.632, 225.598 454.736 M 94.630 458.250 C 94.299 459.488, 94.021 463.246, 94.014 466.602 C 94.003 471.321, 94.519 473.474, 96.290 476.102 C 99.368 480.669, 101.294 480.472, 102.175 475.500 C 103.557 467.707, 103.115 463.634, 100.464 459.732 C 97.582 455.491, 95.511 454.965, 94.630 458.250 M 500 464.930 C 493.633 466.203, 488.230 470.551, 489.359 473.493 C 489.859 474.797, 491.094 474.948, 496.730 474.393 C 504.057 473.671, 507.458 472.362, 510.374 469.140 C 514.363 464.732, 509.948 462.941, 500 464.930 M 106.667 470.667 C 106.300 471.033, 106 474.567, 106 478.519 C 106 484.344, 106.432 486.347, 108.284 489.102 C 109.541 490.971, 111.566 492.644, 112.784 492.820 C 114.911 493.126, 115 492.823, 115 485.302 C 115 478.560, 114.645 476.943, 112.464 473.732 C 110.058 470.192, 108.150 469.183, 106.667 470.667 M 484 479.121 C 482.625 479.667, 480.271 481.290, 478.768 482.727 C 474.974 486.355, 476.580 488.006, 483.872 487.978 C 492.456 487.945, 501.099 483.306, 499.643 479.513 C 498.962 477.738, 488.158 477.467, 484 479.121 M 218.826 488.250 L 213.286 494.500 205.643 491.314 C 201.439 489.561, 198 488.316, 198 488.546 C 198 488.776, 199.800 491.906, 202 495.500 C 204.200 499.094, 206 502.407, 206 502.862 C 206 503.317, 203.727 506.286, 200.949 509.460 C 198.172 512.635, 196.053 515.387, 196.242 515.575 C 196.431 515.764, 199.041 515.308, 202.043 514.562 C 213.382 511.744, 212.068 511.337, 216.500 519.035 C 218.700 522.856, 220.838 525.986, 221.250 525.991 C 221.662 525.996, 222 523.581, 222 520.625 C 222 509.772, 222.178 509.515, 231.099 507.477 C 235.447 506.484, 238.745 505.412, 238.428 505.094 C 238.110 504.777, 234.846 503.320, 231.175 501.857 L 224.500 499.197 224.591 490.598 C 224.641 485.869, 224.611 482, 224.525 482 C 224.438 482, 221.873 484.813, 218.826 488.250 M 375.401 490.490 L 375.500 499.338 368.031 502.374 L 360.563 505.410 369.031 507.504 L 377.500 509.598 378.047 517.263 C 378.349 521.479, 378.824 525.158, 379.105 525.438 C 379.385 525.719, 381.319 523.035, 383.401 519.475 C 385.484 515.915, 387.514 512.800, 387.913 512.554 C 388.311 512.308, 391.964 512.962, 396.031 514.008 C 400.097 515.054, 403.605 515.729, 403.826 515.507 C 404.047 515.286, 401.927 512.459, 399.114 509.225 C 396.301 505.991, 394 503.050, 394 502.690 C 394 502.330, 395.800 499.094, 398 495.500 C 400.200 491.906, 402 488.768, 402 488.527 C 402 488.286, 398.875 489.419, 395.055 491.045 C 388.127 493.993, 385.028 494.670, 384.968 493.250 C 384.951 492.837, 382.769 490.057, 380.119 487.072 L 375.302 481.643 375.401 490.490 M 119 490.050 C 119 494.131, 119.589 498.237, 120.398 499.802 C 122.443 503.757, 125.653 506.347, 127.590 505.604 C 129.024 505.054, 129.159 503.960, 128.562 497.732 C 127.797 489.756, 124.267 483, 120.864 483 C 119.222 483, 119 483.838, 119 490.050 M 469.500 492.015 C 465.524 493.781, 462.674 496.709, 463.313 498.372 C 463.816 499.683, 465.454 500, 471.736 500 C 478.437 500, 480.061 499.643, 483.268 497.464 C 489.719 493.080, 487.659 490.981, 477 491.077 C 473.975 491.104, 470.600 491.527, 469.500 492.015 M 132.489 501.750 C 133.289 509.233, 134.580 512.351, 138.331 515.855 C 141.581 518.891, 143.006 517.921, 142.976 512.691 C 142.923 503.333, 138.552 495, 133.696 495 C 131.910 495, 131.820 495.500, 132.489 501.750 M 297.011 505.463 L 294.671 512.927 286.233 513.213 L 277.795 513.500 284.398 518.245 C 288.029 520.854, 291 523.363, 291 523.819 C 291 524.276, 289.902 527.879, 288.560 531.825 C 287.217 535.771, 286.430 538.988, 286.810 538.973 C 287.189 538.959, 290.166 536.934, 293.424 534.473 C 296.683 532.013, 299.754 530, 300.250 530 C 300.746 530, 303.845 532.072, 307.137 534.606 C 310.429 537.139, 313.319 539.015, 313.559 538.774 C 313.799 538.534, 312.880 535.056, 311.515 531.045 C 310.151 527.034, 309.268 523.376, 309.552 522.916 C 309.836 522.456, 312.824 520.149, 316.192 517.790 L 322.314 513.500 313.822 513.213 L 305.329 512.927 302.989 505.463 C 301.701 501.359, 300.356 498, 300 498 C 299.644 498, 298.299 501.359, 297.011 505.463 M 452.202 505.146 C 446.902 508.539, 448.266 510.347, 456.928 511.408 C 463.729 512.242, 464.699 512.126, 468.712 509.997 C 476.204 506.022, 473.329 503.280, 461.500 503.117 C 457 503.054, 454.675 503.562, 452.202 505.146 M 146.572 506.884 C 145.802 508.129, 147.914 518.933, 149.542 522.081 C 151.217 525.320, 155.658 528.345, 157.629 527.589 C 159.146 527.007, 158.965 524.094, 156.896 515.860 C 155.484 510.237, 148.339 504.025, 146.572 506.884 M 438.174 515.007 C 431.636 517.974, 432.738 520.093, 441.769 521.921 C 448.769 523.338, 449.178 523.312, 453.580 521.174 C 459.936 518.085, 459.286 515.953, 451.494 514.333 C 443.613 512.695, 443.225 512.715, 438.174 515.007 M 161.534 516.945 C 161.213 517.465, 161.690 520.836, 162.594 524.437 C 163.918 529.705, 164.997 531.668, 168.122 534.492 C 174.759 540.488, 176.267 538.531, 173.084 528.052 C 171.444 522.651, 170.214 520.502, 167.638 518.538 C 164.100 515.839, 162.479 515.416, 161.534 516.945 M 421.108 525.076 C 418.224 526.834, 417.924 527.347, 419.108 528.501 C 419.873 529.248, 423.434 530.632, 427.021 531.577 C 433.412 533.262, 433.638 533.254, 438.360 531.165 C 441.192 529.912, 443.008 528.512, 442.767 527.767 C 442.211 526.056, 433.444 523.178, 428.500 523.084 C 426.100 523.038, 423.143 523.835, 421.108 525.076 M 177 526.822 C 177 529.218, 179.961 537.936, 181.681 540.602 C 182.426 541.759, 184.595 543.544, 186.500 544.570 C 191.520 547.274, 192.485 545.723, 190.099 538.787 C 187.378 530.878, 186.297 529.152, 182.686 526.950 C 178.700 524.520, 177 524.482, 177 526.822 M 406 532.415 C 401.408 534.073, 401.573 536.042, 406.500 538.392 C 411.674 540.861, 419.156 541.592, 422.988 540.005 C 427.916 537.964, 426.823 535.659, 419.750 533.175 C 412.727 530.708, 410.995 530.613, 406 532.415 M 193.346 535.979 C 194.460 541.550, 198.462 548.459, 201.898 550.742 C 208.866 555.372, 210.339 552.909, 206.140 543.648 C 203.112 536.969, 198.831 533.012, 194.625 533.004 C 193.078 533.001, 192.854 533.520, 193.346 535.979 M 389.250 539.119 C 383.803 540.692, 384.970 543.337, 392.529 546.550 C 398.239 548.977, 399.650 549.210, 403.779 548.412 C 407.410 547.711, 408.568 547.026, 408.794 545.446 C 409.035 543.763, 407.898 542.903, 402.524 540.696 C 395.495 537.809, 394.284 537.665, 389.250 539.119 M 209.638 540.777 C 209.305 541.316, 210.488 544.623, 212.266 548.128 C 214.929 553.375, 216.332 554.939, 220.212 556.988 C 226.951 560.548, 228.043 559.002, 224.177 551.373 C 222.540 548.143, 220.121 544.494, 218.802 543.265 C 216.129 540.775, 210.572 539.266, 209.638 540.777 M 372.500 544.724 C 366.531 546.191, 367.420 548.659, 375.369 552.687 C 379.391 554.725, 381.398 555.132, 385.680 554.777 C 388.605 554.534, 391.279 554.055, 391.622 553.711 C 393.121 552.212, 390.590 549.721, 384.768 546.967 C 378.667 544.080, 376.631 543.708, 372.500 544.724 M 226.722 546.250 C 226.267 547.528, 230.076 554.989, 232.919 558.391 C 236.135 562.239, 245 564.848, 245 561.947 C 245 561.485, 243.378 558.340, 241.396 554.958 C 238.618 550.217, 236.843 548.378, 233.646 546.927 C 228.746 544.702, 227.322 544.562, 226.722 546.250 M 352.750 550.022 C 350.018 551.704, 350.607 552.774, 356.250 556.380 C 362.350 560.279, 366.305 561.334, 370.500 560.181 C 375.183 558.893, 374.662 556.714, 368.790 553.027 C 363.132 549.475, 355.853 548.111, 352.750 550.022 M 244 551.263 C 244 553.219, 250.773 562.811, 253.270 564.392 C 256.946 566.719, 261.908 567.402, 262.572 565.672 C 263.447 563.392, 256.288 553.365, 252.503 551.568 C 248.524 549.680, 244 549.518, 244 551.263 M 336.582 552.893 C 332.126 553.820, 332.443 555.421, 337.870 559.404 C 344.108 563.984, 348.106 565.390, 352.525 564.561 C 357.013 563.719, 356.934 561.900, 352.250 558.229 C 345.843 553.206, 341.762 551.817, 336.582 552.893 M 262 554.767 C 262 557.864, 270.731 566.839, 274.982 568.113 C 278.893 569.284, 282 568.846, 282 567.123 C 282 564.965, 272.859 555.147, 269.885 554.110 C 265.075 552.433, 262 552.689, 262 554.767 M 279.501 555.998 C 278.440 557.715, 288.921 567.884, 292.886 568.985 C 298.036 570.415, 300 570.241, 300 568.353 C 300 566.051, 293.425 558.271, 289.970 556.484 C 286.703 554.795, 280.425 554.504, 279.501 555.998 M 298.152 556.317 C 297.313 557.327, 298.157 558.695, 301.780 562.201 C 307.658 567.889, 309.807 569, 314.934 569 C 320.300 569, 320.156 567.563, 314.204 561.701 C 308.170 555.757, 300.697 553.251, 298.152 556.317 M 315.418 556.132 C 314.659 557.361, 320.601 562.994, 325.459 565.650 C 329.092 567.636, 335.485 567.919, 337.218 566.170 C 338.263 565.116, 337.853 564.322, 335 561.879 C 328.627 556.422, 325.709 555.008, 320.809 555.004 C 318.229 555.002, 315.803 555.509, 315.418 556.132" stroke="none" fill="black" fill-rule="evenodd"/>
</svg>